# xmcd CD database file
#
# Track frame offsets:
#	150
#	23012
#	46060
#	64272
#	85367
#	105997
#	130720
#	154020
#	170720
#	191695
#
# Disc length: 2835 seconds
#
# Revision: 4
# Processed by: cddbd v1.5.2PL0 Copyright (c) Steve Scherf et al.
# Submitted via: CDex 1.70beta2
#
DISCID=790b110a
DTITLE=張信哲 - 直覺
DYEAR=1997
DGENRE=Pop
TTITLE0=信
TTITLE1=我相信
TTITLE2=愛的証據
TTITLE3=很快
TTITLE4=絕不再失去你
TTITLE5=直覺
TTITLE6=雨後
TTITLE7=男人說法
TTITLE8=兩個小孩子
TTITLE9=心情卡
EXTD=YEAR: 1997
EXTT0=
EXTT1=
EXTT2=
EXTT3=
EXTT4=
EXTT5=
EXTT6=
EXTT7=
EXTT8=
EXTT9=
PLAYORDER=
